<svg width="32" height="32" viewBox="0 0 32 32" fill="none" xmlns="http://www.w3.org/2000/svg">
<path d="M0 16C0 7.16344 7.16344 0 16 0V0C24.8366 0 32 7.16344 32 16V16C32 24.8366 24.8366 32 16 32V32C7.16344 32 0 24.8366 0 16V16Z" fill="#E0E7FF"/>
<path d="M5.4375 24.9375H20.0625" stroke="#6366F1" stroke-width="2" stroke-linecap="round" stroke-linejoin="round"/>
<path d="M4.71917 17.2562L8.54761 20.8454C9.05769 21.3236 9.70839 21.6246 10.4031 21.7036C11.0978 21.7826 11.7995 21.6355 12.4039 21.2841L27.7813 12.3438L25.8882 10.03C25.3971 9.42977 24.7075 9.02494 23.944 8.88863C23.1806 8.75233 22.3935 8.89354 21.725 9.28676L17.2188 11.9375L11.125 9.90625L9.44933 10.6244C9.32396 10.6781 9.21414 10.7626 9.12998 10.8699C9.04583 10.9772 8.99005 11.104 8.96778 11.2386C8.94552 11.3731 8.95749 11.5112 9.00259 11.6399C9.04769 11.7686 9.12447 11.8839 9.22585 11.9751L12.3438 14.7813L9.50001 16.4063L6.65626 15.1875L4.95481 15.9167C4.83073 15.9699 4.72186 16.0531 4.63803 16.1589C4.55419 16.2647 4.49805 16.3898 4.47466 16.5227C4.45127 16.6557 4.46138 16.7924 4.50407 16.9204C4.54676 17.0485 4.62069 17.1639 4.71917 17.2562V17.2562Z" stroke="#6366F1" stroke-width="2" stroke-linecap="round" stroke-linejoin="round"/>
</svg>
