<svg width="32" height="32" viewBox="0 0 32 32" fill="none" xmlns="http://www.w3.org/2000/svg">
<path d="M0 16C0 7.16344 7.16344 0 16 0V0C24.8366 0 32 7.16344 32 16V16C32 24.8366 24.8366 32 16 32V32C7.16344 32 0 24.8366 0 16V16Z" fill="#E0E7FF"/>
<path d="M23.0002 10.5834C24.4577 10.5834 25.6391 9.40188 25.6391 7.94448C25.6391 6.48706 24.4577 5.30559 23.0002 5.30559C21.5428 5.30559 20.3614 6.48706 20.3614 7.94448C20.3614 9.40188 21.5428 10.5834 23.0002 10.5834Z" stroke="#6366F1" stroke-width="1.5"/>
<path d="M10.3333 11.517L14.5572 10.0544L20.3611 12.8245L14.5572 17.151L20.3611 20.9717L16.6711 25.8878" stroke="#6366F1" stroke-width="2" stroke-linecap="round" stroke-linejoin="round"/>
<path d="M22.6405 14.0896L24.0558 14.8593L27.2216 11.8848" stroke="#6366F1" stroke-width="2" stroke-linecap="round" stroke-linejoin="round"/>
<path d="M12.8923 19.3156L11.3249 21.3802L6.11292 24.3037" stroke="#6366F1" stroke-width="2" stroke-linecap="round" stroke-linejoin="round"/>
</svg>
